<svg width="800" height="1032" viewBox="0 0 800 1032" fill="none" xmlns="http://www.w3.org/2000/svg">
    <mask id="mask0_2_7" style="mask-type:alpha" maskUnits="userSpaceOnUse" x="0" y="-48"
        width="960" height="1143">
        <path
            d="M49.6107 537.633C-42.9903 393.629 -1.31937 201.822 142.685 109.221L309.456 1.98049C453.46 -90.6204 645.267 -48.9494 737.868 95.0549L856.588 279.678C949.189 423.683 907.518 615.49 763.514 708.091L596.743 815.331C452.739 907.932 260.932 866.261 168.331 722.257L49.6107 537.633Z"
            fill="black" />
    </mask>
    <g mask="url(#mask0_2_7)">
        <rect y="-125" width="960" height="1143" fill="#9C32EB" />
        <rect y="-125" width="960" height="1143" fill="url(#paint0_radial_2_7)" />
        <rect y="-125" width="960" height="1143" fill="url(#paint1_radial_2_7)" />
        <rect y="-125" width="960" height="1143" fill="url(#paint2_radial_2_7)" />
        <rect y="-125" width="960" height="1143" fill="url(#paint3_radial_2_7)" />
    </g>
    <defs>
        <radialGradient id="paint0_radial_2_7" cx="0" cy="0" r="1" gradientUnits="userSpaceOnUse"
            gradientTransform="translate(480 446.5) rotate(49.9733) scale(746.333 735.115)">
            <stop stop-color="#C936A1" />
            <stop offset="1" stop-color="#C936A1" stop-opacity="0" />
        </radialGradient>
        <radialGradient id="paint1_radial_2_7" cx="0" cy="0" r="1" gradientUnits="userSpaceOnUse"
            gradientTransform="translate(480 446.5) rotate(49.9733) scale(746.333 735.115)">
            <stop stop-color="#FF8C32" stop-opacity="0.75" />
            <stop offset="0.6" stop-color="#FF8C32" stop-opacity="0" />
        </radialGradient>
        <radialGradient id="paint2_radial_2_7" cx="0" cy="0" r="1" gradientUnits="userSpaceOnUse"
            gradientTransform="translate(480 446.5) rotate(49.9733) scale(746.333 735.115)">
            <stop offset="0.1" stop-color="#5690E8" />
            <stop offset="0.5" stop-color="#4798DF" stop-opacity="0" />
        </radialGradient>
        <radialGradient id="paint3_radial_2_7" cx="0" cy="0" r="1" gradientUnits="userSpaceOnUse"
            gradientTransform="translate(480 446.5) rotate(49.9733) scale(746.333 735.115)">
            <stop stop-color="#7A1BDD" />
            <stop offset="0.55" stop-color="#7A1BDD" stop-opacity="0" />
        </radialGradient>
    </defs>
</svg>