<svg width="567" height="350" viewBox="0 0 567 350" fill="none" xmlns="http://www.w3.org/2000/svg">
    <path
        d="M400 201L329.306 201C306.935 201 286.353 191.46 286.353 169.707C286.353 142.536 286.353 45.2679 286.353 38.7804C286.353 15.8832 277.852 1.00002 242.058 1.00002C197.315 1.00003 98.434 1.00003 -1.89496e-05 1.00003"
        stroke="#638A4E" stroke-width="2" />
    <ellipse cx="32.6846" cy="43.5795" rx="32.6846" ry="43.5795"
        transform="matrix(-0.760765 -0.649027 0.760765 -0.649028 223.357 171)" fill="#3C652F" />
    <path d="M205.128 142.875L320.146 44.75" stroke="#74AA63" stroke-width="2" />
    <path fill-rule="evenodd" clip-rule="evenodd"
        d="M497.82 234.74C502.531 238.877 508.504 241.674 515.203 242.456C532.757 244.506 548.648 231.937 550.697 214.383C552.747 196.829 540.178 180.937 522.624 178.888C515.926 178.106 509.47 179.453 503.933 182.392C481.231 191.576 435.913 197.224 435.913 197.224L435.047 204.64C435.047 204.64 477.844 220.574 497.82 234.74Z"
        fill="#EB5A35" />
    <path fill-rule="evenodd" clip-rule="evenodd"
        d="M448.197 282.287C448.604 288.543 450.849 294.745 455.032 300.035C465.996 313.896 486.12 316.245 499.982 305.282C513.843 294.319 516.193 274.194 505.229 260.332C501.046 255.043 495.529 251.43 489.535 249.593C466.988 240.035 430.95 211.984 430.95 211.984L425.094 216.616C425.094 216.616 444.089 258.145 448.197 282.287Z"
        fill="#EB5A35" />
    <path fill-rule="evenodd" clip-rule="evenodd"
        d="M379.488 280.819C375.351 285.53 372.554 291.503 371.772 298.201C369.722 315.755 382.291 331.647 399.845 333.696C417.399 335.745 433.291 323.176 435.34 305.622C436.122 298.924 434.775 292.468 431.836 286.931C422.652 264.23 417.004 218.911 417.004 218.911L409.588 218.046C409.588 218.046 393.654 260.842 379.488 280.819Z"
        fill="#EB5A35" />
    <path fill-rule="evenodd" clip-rule="evenodd"
        d="M331.94 231.196C325.684 231.602 319.482 233.847 314.193 238.031C300.331 248.994 297.982 269.119 308.945 282.98C319.909 296.842 340.033 299.191 353.895 288.228C359.184 284.045 362.797 278.528 364.634 272.534C374.192 249.987 402.243 213.949 402.243 213.949L397.611 208.092C397.611 208.092 356.083 227.087 331.94 231.196Z"
        fill="#EB5A35" />
    <path fill-rule="evenodd" clip-rule="evenodd"
        d="M333.407 162.486C328.696 158.35 322.723 155.552 316.025 154.77C298.471 152.721 282.579 165.29 280.53 182.844C278.481 200.398 291.05 216.289 308.604 218.338C315.302 219.12 321.758 217.774 327.295 214.834C349.996 205.65 395.315 200.002 395.315 200.002L396.18 192.586C396.18 192.586 353.384 176.652 333.407 162.486Z"
        fill="#EB5A35" />
    <path fill-rule="evenodd" clip-rule="evenodd"
        d="M383.03 114.94C382.624 108.683 380.379 102.482 376.195 97.192C365.232 83.3305 345.107 80.9812 331.245 91.9446C317.384 102.908 315.035 123.033 325.998 136.894C330.181 142.183 335.698 145.796 341.692 147.633C364.239 157.191 400.277 185.243 400.277 185.243L406.134 180.611C406.134 180.611 387.139 139.082 383.03 114.94Z"
        fill="#EB5A35" />
    <path fill-rule="evenodd" clip-rule="evenodd"
        d="M451.74 116.408C455.876 111.697 458.674 105.724 459.456 99.0253C461.505 81.4714 448.936 65.5799 431.382 63.5307C413.828 61.4814 397.937 74.0504 395.887 91.6043C395.106 98.3023 396.452 104.758 399.391 110.295C408.576 132.997 414.223 178.315 414.223 178.315L421.64 179.181C421.64 179.181 437.573 136.384 451.74 116.408Z"
        fill="#EB5A35" />
    <path fill-rule="evenodd" clip-rule="evenodd"
        d="M499.289 166.031C505.545 165.624 511.747 163.379 517.037 159.196C530.898 148.232 533.247 128.108 522.284 114.246C511.321 100.385 491.196 98.0353 477.334 108.999C472.045 113.182 468.432 118.699 466.595 124.693C457.037 147.24 428.986 183.278 428.986 183.278L433.618 189.134C433.618 189.134 475.147 170.139 499.289 166.031Z"
        fill="#EB5A35" />
    <path
        d="M416.027 173.142C416.646 170.073 421.181 170.603 421.077 173.731V173.731C420.991 176.293 424.313 177.367 425.743 175.239V175.239C427.489 172.641 431.477 174.866 430.183 177.716V177.716C429.123 180.05 431.782 182.314 433.917 180.895V180.895C436.524 179.163 439.357 182.744 437.07 184.883V184.883C435.198 186.633 436.788 189.742 439.304 189.248V189.248C442.376 188.646 443.622 193.039 440.691 194.139V194.139C438.292 195.04 438.571 198.521 441.084 199.027V199.027C444.153 199.646 443.623 204.182 440.494 204.077V204.077C437.933 203.991 436.859 207.314 438.987 208.743V208.743C441.585 210.489 439.36 214.477 436.51 213.183V213.183C434.176 212.123 431.912 214.782 433.331 216.917V216.917C435.063 219.524 431.481 222.357 429.343 220.071V220.071C427.592 218.199 424.484 219.789 424.977 222.304V222.304C425.58 225.376 421.187 226.622 420.087 223.692V223.692C419.185 221.292 415.705 221.572 415.198 224.084V224.084C414.58 227.153 410.044 226.624 410.149 223.495V223.495C410.235 220.933 406.912 219.859 405.482 221.987V221.987C403.737 224.585 399.749 222.36 401.043 219.51V219.51C402.102 217.176 399.444 214.913 397.309 216.331V216.331C394.701 218.063 391.869 214.482 394.155 212.344V212.344C396.027 210.593 394.437 207.484 391.922 207.978V207.978C388.85 208.58 387.603 204.187 390.534 203.087V203.087C392.934 202.186 392.654 198.705 390.141 198.199V198.199C387.073 197.58 387.602 193.044 390.731 193.149V193.149C393.293 193.235 394.366 189.912 392.239 188.483V188.483C389.64 186.737 391.865 182.749 394.716 184.043V184.043C397.05 185.103 399.313 182.444 397.895 180.309V180.309C396.162 177.702 399.744 174.869 401.882 177.155V177.155C403.633 179.028 406.742 177.437 406.248 174.922V174.922C405.645 171.85 410.038 170.604 411.139 173.534V173.534C412.04 175.934 415.52 175.654 416.027 173.142V173.142Z"
        fill="#F4B442" />
    <path d="M448.555 172.559L415.613 198.613" stroke="#DC8433" stroke-width="2" />
    <circle cx="448.555" cy="172.559" r="6" transform="rotate(51.6586 448.555 172.559)"
        fill="#F4B442" />
    <path d="M456.017 187.148L415.613 198.613" stroke="#DC8433" stroke-width="2" />
    <circle cx="456.018" cy="187.148" r="6" transform="rotate(74.1586 456.018 187.148)"
        fill="#F4B442" />
    <path d="M457.329 203.483L415.613 198.613" stroke="#DC8433" stroke-width="2" />
    <circle cx="457.329" cy="203.483" r="6" transform="rotate(96.6586 457.329 203.483)"
        fill="#F4B442" />
    <path d="M452.29 219.077L415.613 198.613" stroke="#DC8433" stroke-width="2" />
    <circle cx="452.291" cy="219.077" r="6" transform="rotate(119.159 452.291 219.077)"
        fill="#F4B442" />
    <path d="M441.668 231.555L415.613 198.613" stroke="#DC8433" stroke-width="2" />
    <circle cx="441.667" cy="231.555" r="6" transform="rotate(141.659 441.667 231.555)"
        fill="#F4B442" />
    <path d="M427.077 239.018L415.612 198.613" stroke="#DC8433" stroke-width="2" />
    <circle cx="427.078" cy="239.018" r="6" transform="rotate(164.159 427.078 239.018)"
        fill="#F4B442" />
    <path d="M410.743 240.33L415.613 198.613" stroke="#DC8433" stroke-width="2" />
    <circle cx="410.743" cy="240.33" r="6" transform="rotate(-173.341 410.743 240.33)"
        fill="#F4B442" />
    <path d="M395.15 235.291L415.613 198.613" stroke="#DC8433" stroke-width="2" />
    <circle cx="395.15" cy="235.291" r="6" transform="rotate(-150.841 395.15 235.291)"
        fill="#F4B442" />
    <path d="M382.672 224.668L415.614 198.613" stroke="#DC8433" stroke-width="2" />
    <circle cx="382.672" cy="224.668" r="6" transform="rotate(-128.341 382.672 224.668)"
        fill="#F4B442" />
    <path d="M375.21 210.078L415.615 198.613" stroke="#DC8433" stroke-width="2" />
    <circle cx="375.209" cy="210.078" r="6" transform="rotate(-105.841 375.209 210.078)"
        fill="#F4B442" />
    <path d="M373.896 193.743L415.613 198.613" stroke="#DC8433" stroke-width="2" />
    <circle cx="373.896" cy="193.743" r="6" transform="rotate(-83.3414 373.896 193.743)"
        fill="#F4B442" />
    <path d="M378.937 178.15L415.615 198.613" stroke="#DC8433" stroke-width="2" />
    <circle cx="378.937" cy="178.15" r="6" transform="rotate(-60.8414 378.937 178.15)"
        fill="#F4B442" />
    <path d="M389.559 165.671L415.614 198.613" stroke="#DC8433" stroke-width="2" />
    <circle cx="389.56" cy="165.672" r="6" transform="rotate(-38.3414 389.56 165.672)"
        fill="#F4B442" />
    <path d="M404.15 158.208L415.615 198.613" stroke="#DC8433" stroke-width="2" />
    <circle cx="404.15" cy="158.208" r="6" transform="rotate(-15.8414 404.15 158.208)"
        fill="#F4B442" />
    <path d="M420.485 156.897L415.615 198.613" stroke="#DC8433" stroke-width="2" />
    <circle cx="420.485" cy="156.897" r="6" transform="rotate(6.65856 420.485 156.897)"
        fill="#F4B442" />
    <path d="M436.076 161.935L415.612 198.613" stroke="#DC8433" stroke-width="2" />
    <circle cx="436.075" cy="161.935" r="6" transform="rotate(29.1586 436.075 161.935)"
        fill="#F4B442" />
</svg>
    